<?xml version="1.0" encoding="utf-8"?>
<!-- Generator: Adobe Illustrator 25.2.1, SVG Export Plug-In . SVG Version: 6.00 Build 0)  -->
<svg version="1.1" id="일룸로고" xmlns="http://www.w3.org/2000/svg" xmlns:xlink="http://www.w3.org/1999/xlink" x="0px"
	 y="0px" viewBox="0 0 116 35" style="enable-background:new 0 0 116 35;" xml:space="preserve">
<style type="text/css">
	.st0{fill:#333333;}
</style>
<g>
	<circle class="st0" cx="7" cy="5.5" r="4"/>
	<polygon class="st0" points="0,13 3,13 3,34 10,34 10,13 10,12 10,11 0,11 	"/>
</g>
<polygon class="st0" points="14,2 14,4 17,4 17,34 24,34 24,4 24,2.43 24,2 "/>
<path class="st0" d="M51,22.5C51,15.6,45.85,10,39.5,10S28,15.6,28,22.5S33.15,35,39.5,35S51,29.4,51,22.5z M39.5,12
	c2.49,0,4.5,4.48,4.5,10c0,5.52-2.01,10-4.5,10S35,27.52,35,22C35,16.48,37.01,12,39.5,12z"/>
<g>
	<path class="st0" d="M66.5,10C60.15,10,55,15.6,55,22.5S60.15,35,66.5,35S78,29.4,78,22.5S72.85,10,66.5,10z M66.5,32
		c-2.49,0-4.5-4.48-4.5-10c0-5.52,2.01-10,4.5-10S71,16.48,71,22C71,27.52,68.99,32,66.5,32z"/>
</g>
<path class="st0" d="M78.77,12h2.71v22h6.97V16.03c0,0,1.55-3.03,3.55-3.03s4,2,4,3s0,18,0,18h6.19L102,18c0,0,0.04-2.87,1-4
	c0.69-0.82,2.16-1,3-1c2,0,3,1,3,2s0,19,0,19h6.74V15.84c0,0-1.13-5.84-7.94-5.84c0,0-5.81,0-6.81,4c0,0-2.15-3.7-6-4
	c-1.09-0.08-3.44,0.25-4.84,0.92C89.1,11.43,88,13,88,13l-0.13-2h-9.1V12z"/>
</svg>
