<?xml version="1.0" encoding="utf-8"?>
<!-- Generator: Adobe Illustrator 25.0.1, SVG Export Plug-In . SVG Version: 6.00 Build 0)  -->
<svg version="1.1" id="Layer_1" xmlns="http://www.w3.org/2000/svg" xmlns:xlink="http://www.w3.org/1999/xlink" x="0px" y="0px"
	 viewBox="0 0 807 133" style="enable-background:new 0 0 807 133;" xml:space="preserve">
<style type="text/css">
	.st0{display:none;}
	.st1{fill:#57575C;}
	.st2{fill:#C3333D;}
	.st3{display:inline;}
	.st4{fill:#FFFFFF;}
</style>
<g class="st0">
	<rect x="55.34" y="51" class="st1" width="83" height="62"/>
	<rect x="-27.66" y="51" class="st2" width="83" height="62"/>
	<rect x="55.34" y="-53" class="st2" width="83" height="63"/>
	<rect x="-27.66" y="-53" class="st1" width="83" height="63"/>
	<polygon class="st3" points="55.34,10 -27.66,10 -27.66,51 55.34,51 138.34,51 138.34,10 	"/>
</g>
<g id="COFFEE_x26_DESSERT">
	<path class="st4" d="M36.22,4.05h7.61l23.44,61.14h-9.62L40.02,15.86L22.39,65.18h-9.61L36.22,4.05z M23.58,43.62h33.45v8.16H23.58
		V43.62z"/>
	<path class="st4" d="M92.2,4.05h44.86v8.16H92.2V4.05z M110.16,9.05h8.92v56.13h-8.92V9.05z"/>
	<path class="st4" d="M176.29,4.05h6.12l13.03,47.93l11.24-47.93h9.27l-15.53,61.14h-9.09l-11.72-42.72l-12.25,42.72h-9.1
		L142.75,4.05h9.27l11.24,47.93L176.29,4.05z"/>
	<path class="st4" d="M233.58,63.02c-3.38-1.86-6-4.5-7.85-7.91c-1.85-3.4-2.78-7.35-2.78-11.83V25.95c0-4.48,0.93-8.43,2.78-11.83
		c1.85-3.41,4.47-6.04,7.85-7.91c3.38-1.86,7.29-2.8,11.72-2.8c4.43,0,8.34,0.93,11.72,2.8c3.38,1.86,5.99,4.5,7.85,7.91
		c1.85,3.4,2.78,7.35,2.78,11.83v17.33c0,4.49-0.93,8.43-2.78,11.83c-1.85,3.41-4.47,6.04-7.85,7.91c-3.38,1.86-7.29,2.8-11.72,2.8
		C240.86,65.81,236.96,64.88,233.58,63.02z M252.23,55.66c1.99-1.14,3.54-2.74,4.63-4.84c1.1-2.09,1.64-4.5,1.64-7.25V25.66
		c0-2.75-0.55-5.17-1.64-7.25c-1.09-2.09-2.64-3.7-4.63-4.84c-2-1.14-4.31-1.7-6.93-1.7c-2.63,0-4.93,0.57-6.93,1.7
		c-2,1.14-3.54,2.75-4.64,4.84c-1.09,2.09-1.64,4.5-1.64,7.25v17.91c0,2.75,0.55,5.17,1.64,7.25c1.1,2.09,2.64,3.7,4.64,4.84
		c2,1.14,4.31,1.71,6.93,1.71C247.92,57.37,250.23,56.8,252.23,55.66z"/>
	<path class="st4" d="M290.74,64.97c-2.74-0.56-5.3-1.4-7.68-2.52s-4.6-2.52-6.66-4.21l5.55-6.56c2.42,2.02,5.09,3.54,8,4.54
		c2.91,1.01,6.08,1.51,9.49,1.51c4.6,0,8.17-0.82,10.71-2.46c2.53-1.64,3.8-3.96,3.8-6.96v-0.04c0-2.13-0.58-3.82-1.73-5.07
		c-1.15-1.25-2.64-2.17-4.46-2.77c-1.82-0.61-4.18-1.16-7.07-1.66c-0.09-0.03-0.18-0.05-0.29-0.05c-0.1,0-0.19-0.01-0.28-0.04
		l-0.66-0.12c-4.26-0.7-7.72-1.5-10.39-2.38c-2.67-0.89-4.95-2.49-6.85-4.84c-1.89-2.34-2.84-5.67-2.84-9.99v-0.05
		c0-3.78,0.88-7.01,2.64-9.69c1.76-2.67,4.33-4.72,7.72-6.12c3.38-1.4,7.45-2.1,12.2-2.1c2.27,0,4.51,0.24,6.71,0.72
		s4.38,1.18,6.52,2.12c2.14,0.94,4.25,2.13,6.32,3.55l-5.07,6.81c-2.42-1.71-4.84-2.99-7.24-3.84c-2.41-0.86-4.82-1.28-7.24-1.28
		c-4.35,0-7.72,0.83-10.13,2.5c-2.41,1.67-3.61,4.03-3.61,7.08v0.04c0,2.1,0.62,3.76,1.86,4.96s2.78,2.1,4.64,2.67
		c1.85,0.58,4.42,1.17,7.72,1.79c0.11,0.03,0.22,0.05,0.33,0.06c0.1,0.01,0.21,0.03,0.33,0.06c0.15,0.03,0.31,0.05,0.48,0.08
		c0.17,0.03,0.33,0.06,0.48,0.09c3.85,0.75,7.07,1.65,9.65,2.69c2.57,1.04,4.74,2.71,6.47,5.03c1.74,2.31,2.6,5.47,2.6,9.48v0.09
		c0,3.73-0.92,6.92-2.76,9.57c-1.84,2.64-4.5,4.67-7.98,6.05c-3.48,1.39-7.69,2.08-12.61,2.08
		C296.38,65.81,293.48,65.53,290.74,64.97z"/>
	<path class="st4" d="M343.04,63.02c-3.38-1.86-6-4.5-7.85-7.91c-1.85-3.4-2.78-7.35-2.78-11.83V25.95c0-4.48,0.93-8.43,2.78-11.83
		c1.85-3.41,4.47-6.04,7.85-7.91c3.38-1.86,7.29-2.8,11.72-2.8c4.43,0,8.34,0.93,11.72,2.8c3.38,1.86,5.99,4.5,7.85,7.91
		c1.85,3.4,2.78,7.35,2.78,11.83v17.33c0,4.49-0.93,8.43-2.78,11.83c-1.85,3.41-4.47,6.04-7.85,7.91c-3.38,1.86-7.29,2.8-11.72,2.8
		C350.32,65.81,346.42,64.88,343.04,63.02z M361.69,55.66c1.99-1.14,3.54-2.74,4.63-4.84c1.1-2.09,1.64-4.5,1.64-7.25V25.66
		c0-2.75-0.55-5.17-1.64-7.25c-1.09-2.09-2.64-3.7-4.63-4.84c-2-1.14-4.31-1.7-6.93-1.7c-2.63,0-4.93,0.57-6.93,1.7
		s-3.54,2.75-4.64,4.84c-1.09,2.09-1.64,4.5-1.64,7.25v17.91c0,2.75,0.55,5.17,1.64,7.25c1.1,2.09,2.64,3.7,4.64,4.84
		c2,1.14,4.31,1.71,6.93,1.71C357.38,57.37,359.69,56.8,361.69,55.66z"/>
	<path class="st4" d="M436.36,4.05h8.35v61.14h-8.7V19.39l0.44,2.69l-15.66,34.6h-6.21l-15.65-33.76l0.44-3.54v45.79h-8.7V4.05h8.35
		l18.67,40.37L436.36,4.05z"/>
	<path class="st4" d="M460.45,4.05h8.92v61.14h-8.92V4.05z M464.78,4.05h36.52v8.16h-36.52V4.05z M464.78,30.75h31.71v8.16h-31.71
		V30.75z M464.78,57.03h36.52v8.16h-36.52V57.03z"/>
	<path class="st4" d="M538.03,4.05h8.93v61.14h-8.93V4.05z M542.62,33.31h20.34c1.92,0,3.61-0.43,5.07-1.3
		c1.46-0.87,2.59-2.1,3.39-3.7c0.8-1.6,1.2-3.44,1.2-5.51c0-2.1-0.4-3.95-1.2-5.55c-0.8-1.6-1.93-2.84-3.39-3.72
		c-1.46-0.89-3.15-1.33-5.07-1.33h-20.34V4.05h20.03c3.79,0,7.13,0.78,10.01,2.34c2.89,1.56,5.13,3.75,6.72,6.58
		c1.58,2.83,2.38,6.11,2.38,9.84s-0.8,7-2.38,9.82c-1.59,2.82-3.83,5-6.72,6.54c-2.88,1.54-6.22,2.31-10.01,2.31h-20.03V33.31z"/>
	<path class="st4" d="M592.92,4.05h8.92v61.14h-8.92V4.05z M597.38,57.03h36.38v8.16h-36.38V57.03z"/>
	<path class="st4" d="M662.45,4.05h7.61l23.44,61.14h-9.62l-17.62-49.32l-17.62,49.32h-9.62L662.45,4.05z M649.81,43.62h33.46v8.16
		h-33.46V43.62z"/>
	<path class="st4" d="M708.83,63c-3.34-1.88-5.92-4.54-7.76-7.99c-1.84-3.44-2.76-7.44-2.76-11.98V26.25
		c0-4.54,0.92-8.53,2.76-11.98s4.42-6.12,7.76-8.01s7.21-2.84,11.61-2.84c3.65,0,7,0.75,10.06,2.25c3.06,1.5,5.62,3.62,7.67,6.37
		c2.06,2.75,3.45,5.93,4.18,9.55h-9.14c-0.55-1.91-1.48-3.61-2.77-5.11c-1.3-1.5-2.83-2.66-4.57-3.47
		c-1.75-0.81-3.55-1.22-5.42-1.22c-2.59,0-4.86,0.61-6.82,1.81c-1.95,1.2-3.47,2.89-4.54,5.06c-1.08,2.17-1.62,4.7-1.62,7.59v16.78
		c0,2.85,0.54,5.38,1.62,7.57c1.08,2.18,2.59,3.87,4.54,5.06c1.96,1.19,4.23,1.79,6.82,1.79c1.9,0,3.71-0.38,5.45-1.14
		c1.74-0.76,3.25-1.88,4.55-3.36c1.29-1.49,2.22-3.25,2.77-5.3h9.14c-0.73,3.62-2.13,6.8-4.19,9.55c-2.07,2.74-4.64,4.87-7.7,6.37
		c-3.06,1.5-6.4,2.25-10.01,2.25C716.04,65.81,712.16,64.88,708.83,63z"/>
	<path class="st4" d="M754.16,4.05h8.93v61.14h-8.93V4.05z M758.48,4.05H795v8.16h-36.52V4.05z M758.48,30.75h31.71v8.16h-31.71
		V30.75z M758.48,57.03H795v8.16h-36.52V57.03z"/>
</g>
<g id="A_TWOSOME_PLACE">
	<path class="st4" d="M214.9,127.43c-1.75,0.76-5.32,1.53-9.87,1.53c-10.53,0-18.42-5.73-18.42-16.28c0-10.09,7.9-16.87,19.5-16.87
		c4.62,0,7.6,0.84,8.87,1.41l-1.19,3.38c-1.81-0.75-4.41-1.33-7.52-1.33c-8.78,0-14.58,4.82-14.58,13.27
		c0,7.86,5.27,12.89,14.32,12.89c2.97,0,5.95-0.51,7.92-1.32L214.9,127.43z"/>
	<path class="st4" d="M251.71,112.07c0,11.03-7.81,16.92-17.33,16.92c-9.91,0-16.8-6.6-16.8-16.32c0-10.18,7.32-16.88,17.3-16.88
		C245.08,95.79,251.71,102.52,251.71,112.07z M222.68,112.58c0,6.88,4.34,13.03,11.95,13.03c7.66,0,11.97-6.05,11.97-13.36
		c0-6.4-3.88-13.08-11.91-13.08C226.67,99.17,222.68,105.54,222.68,112.58z"/>
	<path class="st4" d="M257.93,96.32h20.13v3.45h-15.28v10.71h14.11v3.44h-14.11v14.55h-4.85V96.32z"/>
	<path class="st4" d="M284.91,96.32h20.13v3.45h-15.28v10.71h14.11v3.44h-14.11v14.55h-4.85V96.32z"/>
	<path class="st4" d="M331.24,113.39h-14.49V125h16.2v3.46H311.9V96.32h20.2v3.45h-15.35v10.18h14.49V113.39z"/>
	<path class="st4" d="M358.5,113.39h-14.49V125h16.2v3.46h-21.05V96.32h20.2v3.45h-15.35v10.18h14.49V113.39z"/>
	<path class="st4" d="M401.58,128.46c-1.08-0.93-2.04-1.83-3.49-3.13c-3.25,2.55-6.8,3.66-10.91,3.66c-7.25,0-11.49-4.21-11.49-9.02
		c0-4.38,3.06-7.37,7.29-9.39l0.01-0.15c-1.92-2.08-3.11-4.43-3.11-6.71c0-3.93,3.3-7.93,9.5-7.93c4.65,0,8.27,2.64,8.27,6.82
		c0,3.37-2.3,6.04-8.2,8.58l-0.01,0.16c3.17,3.16,6.71,6.64,9.11,8.94c1.72-2.24,2.87-5.35,3.6-9.39h4.42
		c-1,5.05-2.59,9.05-5.38,11.86c2,1.84,3.94,3.64,6.19,5.69H401.58z M395.68,122.93c-2.22-2.09-6.38-6.02-10.49-10.13
		c-2.04,1.11-4.83,3.14-4.83,6.52c0,3.7,3.13,6.5,7.62,6.5C391.23,125.83,393.9,124.61,395.68,122.93z M384.32,103.32
		c0,2.31,1.26,4.07,2.84,5.78c3.79-1.86,6.2-3.57,6.2-6.29c0-1.99-1.29-4.16-4.35-4.16C385.94,98.65,384.32,100.87,384.32,103.32z"
		/>
	<path class="st4" d="M423.43,96.75c2.97-0.41,6.47-0.69,10.27-0.69c6.92,0,11.87,1.41,15.14,4.04c3.34,2.6,5.29,6.33,5.29,11.5
		c0,5.27-1.91,9.54-5.37,12.51c-3.53,2.99-9.31,4.64-16.55,4.64c-3.45,0-6.32-0.12-8.78-0.36V96.75z M428.28,125.19
		c1.23,0.17,3.01,0.2,4.85,0.2c10.35,0.02,15.92-4.94,15.92-13.63c0.06-7.59-4.93-12.38-15.11-12.38c-2.49,0-4.37,0.2-5.66,0.42
		V125.19z"/>
	<path class="st4" d="M479.67,113.39h-14.49V125h16.2v3.46h-21.05V96.32h20.2v3.45h-15.35v10.18h14.49V113.39z"/>
	<path class="st4" d="M486.97,123.4c2.16,1.17,5.31,2.09,8.62,2.09c4.93,0,7.84-2.22,7.84-5.48c0-2.98-2.02-4.74-7.07-6.36
		c-6.09-1.86-9.88-4.63-9.88-9.12c0-5,4.84-8.72,12.11-8.72c3.8,0,6.62,0.76,8.24,1.55l-1.35,3.41c-1.19-0.61-3.69-1.53-7.05-1.53
		c-5.13,0-7.07,2.62-7.07,4.81c0,2.98,2.27,4.46,7.43,6.17c6.34,2.14,9.53,4.76,9.53,9.47c0,4.93-4.22,9.27-13.08,9.27
		c-3.61,0-7.55-0.94-9.54-2.1L486.97,123.4z"/>
	<path class="st4" d="M514.28,123.4c2.16,1.17,5.31,2.09,8.62,2.09c4.93,0,7.84-2.22,7.84-5.48c0-2.98-2.02-4.74-7.07-6.36
		c-6.09-1.86-9.88-4.63-9.88-9.12c0-5,4.84-8.72,12.11-8.72c3.8,0,6.62,0.76,8.24,1.55l-1.35,3.41c-1.19-0.61-3.69-1.53-7.05-1.53
		c-5.13,0-7.07,2.62-7.07,4.81c0,2.98,2.27,4.46,7.43,6.17c6.34,2.14,9.53,4.76,9.53,9.47c0,4.93-4.22,9.27-13.08,9.27
		c-3.61,0-7.55-0.94-9.54-2.1L514.28,123.4z"/>
	<path class="st4" d="M561.56,113.39h-14.49V125h16.2v3.46h-21.05V96.32h20.2v3.45h-15.35v10.18h14.49V113.39z"/>
	<path class="st4" d="M569.48,96.75c2.45-0.42,5.97-0.69,9.28-0.69c5.13,0,8.5,0.83,10.83,2.64c1.85,1.4,2.93,3.59,2.93,6.11
		c0,4.22-3.13,7.03-7.04,8.19v0.12c2.85,0.86,4.57,3.18,5.48,6.51c1.23,4.5,2.11,7.57,2.87,8.83h-5c-0.59-0.93-1.43-3.67-2.46-7.7
		c-1.11-4.4-3.13-6.11-7.5-6.23h-4.57v13.93h-4.82V96.75z M574.3,111.39h4.93c5.16,0,8.44-2.42,8.44-6.11c0-4.17-3.5-5.99-8.59-5.99
		c-2.34,0-3.96,0.19-4.78,0.37V111.39z"/>
	<path class="st4" d="M606.92,99.82h-11.38v-3.51h27.67v3.51h-11.44v28.64h-4.85V99.82z"/>
</g>
</svg>
